{
  "scene": 0,
  "asset": { "generator": "ImageToStl.com", "version": "2.0" },
  "scenes": [{ "name": "Scene", "nodes": [0] }],
  "nodes": [
    { "name": "Node0", "children": [1, 66, 68] },
    { "name": "mixamorig_Hips", "children": [2, 56, 61] },
    { "name": "mixamorig_Spine", "children": [3] },
    { "name": "mixamorig_Spine1", "children": [4] },
    { "name": "mixamorig_Spine2", "children": [5, 8, 32] },
    { "name": "mixamorig_Neck", "children": [6] },
    { "name": "mixamorig_Head", "children": [7] },
    { "name": "mixamorig_HeadTop_End" },
    { "name": "mixamorig_RightShoulder", "children": [9] },
    { "name": "mixamorig_RightArm", "children": [10] },
    { "name": "mixamorig_RightForeArm", "children": [11] },
    { "name": "mixamorig_RightHand", "children": [12, 16, 20, 24, 28] },
    { "name": "mixamorig_RightHandThumb1", "children": [13] },
    { "name": "mixamorig_RightHandThumb2", "children": [14] },
    { "name": "mixamorig_RightHandThumb3", "children": [15] },
    { "name": "mixamorig_RightHandThumb4" },
    { "name": "mixamorig_RightHandIndex1", "children": [17] },
    { "name": "mixamorig_RightHandIndex2", "children": [18] },
    { "name": "mixamorig_RightHandIndex3", "children": [19] },
    { "name": "mixamorig_RightHandIndex4" },
    { "name": "mixamorig_RightHandMiddle1", "children": [21] },
    { "name": "mixamorig_RightHandMiddle2", "children": [22] },
    { "name": "mixamorig_RightHandMiddle3", "children": [23] },
    { "name": "mixamorig_RightHandMiddle4" },
    { "name": "mixamorig_RightHandRing1", "children": [25] },
    { "name": "mixamorig_RightHandRing2", "children": [26] },
    { "name": "mixamorig_RightHandRing3", "children": [27] },
    { "name": "mixamorig_RightHandRing4" },
    { "name": "mixamorig_RightHandPinky1", "children": [29] },
    { "name": "mixamorig_RightHandPinky2", "children": [30] },
    { "name": "mixamorig_RightHandPinky3", "children": [31] },
    { "name": "mixamorig_RightHandPinky4" },
    { "name": "mixamorig_LeftShoulder", "children": [33] },
    { "name": "mixamorig_LeftArm", "children": [34] },
    { "name": "mixamorig_LeftForeArm", "children": [35] },
    { "name": "mixamorig_LeftHand", "children": [36, 40, 44, 48, 52] },
    { "name": "mixamorig_LeftHandThumb1", "children": [37] },
    { "name": "mixamorig_LeftHandThumb2", "children": [38] },
    { "name": "mixamorig_LeftHandThumb3", "children": [39] },
    { "name": "mixamorig_LeftHandThumb4" },
    { "name": "mixamorig_LeftHandIndex1", "children": [41] },
    { "name": "mixamorig_LeftHandIndex2", "children": [42] },
    { "name": "mixamorig_LeftHandIndex3", "children": [43] },
    { "name": "mixamorig_LeftHandIndex4" },
    { "name": "mixamorig_LeftHandMiddle1", "children": [45] },
    { "name": "mixamorig_LeftHandMiddle2", "children": [46] },
    { "name": "mixamorig_LeftHandMiddle3", "children": [47] },
    { "name": "mixamorig_LeftHandMiddle4" },
    { "name": "mixamorig_LeftHandRing1", "children": [49] },
    { "name": "mixamorig_LeftHandRing2", "children": [50] },
    { "name": "mixamorig_LeftHandRing3", "children": [51] },
    { "name": "mixamorig_LeftHandRing4" },
    { "name": "mixamorig_LeftHandPinky1", "children": [53] },
    { "name": "mixamorig_LeftHandPinky2", "children": [54] },
    { "name": "mixamorig_LeftHandPinky3", "children": [55] },
    { "name": "mixamorig_LeftHandPinky4" },
    { "name": "mixamorig_RightUpLeg", "children": [57] },
    { "name": "mixamorig_RightLeg", "children": [58] },
    { "name": "mixamorig_RightFoot", "children": [59] },
    { "name": "mixamorig_RightToeBase", "children": [60] },
    { "name": "mixamorig_RightToe_End" },
    { "name": "mixamorig_LeftUpLeg", "children": [62] },
    { "name": "mixamorig_LeftLeg", "children": [63] },
    { "name": "mixamorig_LeftFoot", "children": [64] },
    { "name": "mixamorig_LeftToeBase", "children": [65] },
    { "name": "mixamorig_LeftToe_End" },
    { "name": "Beta_Surface", "children": [67] },
    { "name": "Node67", "mesh": 0 },
    { "name": "Beta_Joints", "children": [69] },
    { "name": "Node69", "mesh": 1 }
  ],
  "materials": [
    {
      "name": "Beta_HighLimbsGeoSG3-fx",
      "pbrMetallicRoughness": {
        "baseColorFactor": [0.6696, 0.241846, 0.210924, 1.0],
        "metallicFactor": 0.487175,
        "roughnessFactor": 0.97128737
      },
      "emissiveFactor": [0.0, 0.0, 0.0],
      "doubleSided": true
    },
    {
      "name": "Beta_Joints_MAT1-fx",
      "pbrMetallicRoughness": {
        "baseColorFactor": [0.266667, 0.099623, 0.080812, 1.0],
        "metallicFactor": 0.299138,
        "roughnessFactor": 0.984375
      },
      "emissiveFactor": [0.0, 0.0, 0.0],
      "doubleSided": true
    }
  ],
  "meshes": [
    {
      "name": "Mesh0",
      "primitives": [
        {
          "indices": 3,
          "material": 0,
          "attributes": { "POSITION": 0, "NORMAL": 1, "TEXCOORD_0": 2 }
        }
      ]
    },
    {
      "name": "Mesh0",
      "primitives": [
        {
          "indices": 7,
          "material": 1,
          "attributes": { "POSITION": 4, "NORMAL": 5, "TEXCOORD_0": 6 }
        }
      ]
    }
  ],
  "accessors": [
    {
      "bufferView": 0,
      "componentType": 5126,
      "count": 15901,
      "type": "VEC3",
      "min": [-90.25662, -0.032194, -14.895703],
      "max": [90.256584, 180.88832, 17.17417]
    },
    { "bufferView": 1, "componentType": 5126, "count": 15901, "type": "VEC3" },
    { "bufferView": 2, "componentType": 5126, "count": 15901, "type": "VEC2" },
    {
      "bufferView": 3,
      "componentType": 5123,
      "count": 254448,
      "type": "SCALAR"
    },
    {
      "bufferView": 4,
      "componentType": 5126,
      "count": 12473,
      "type": "VEC3",
      "min": [-88.34671, -0.035116, -12.990516],
      "max": [88.34667, 159.64423, 12.501925]
    },
    { "bufferView": 5, "componentType": 5126, "count": 12473, "type": "VEC3" },
    { "bufferView": 6, "componentType": 5126, "count": 12473, "type": "VEC2" },
    {
      "bufferView": 7,
      "componentType": 5123,
      "count": 187560,
      "type": "SCALAR"
    }
  ],
  "bufferViews": [
    { "target": 34962, "buffer": 0, "byteLength": 190812, "byteOffset": 0 },
    {
      "target": 34962,
      "buffer": 0,
      "byteLength": 190812,
      "byteOffset": 190812
    },
    {
      "target": 34962,
      "buffer": 0,
      "byteLength": 127208,
      "byteOffset": 381624
    },
    {
      "target": 34963,
      "buffer": 0,
      "byteLength": 508896,
      "byteOffset": 508832
    },
    {
      "target": 34962,
      "buffer": 0,
      "byteLength": 149676,
      "byteOffset": 1017728
    },
    {
      "target": 34962,
      "buffer": 0,
      "byteLength": 149676,
      "byteOffset": 1167404
    },
    {
      "target": 34962,
      "buffer": 0,
      "byteLength": 99784,
      "byteOffset": 1317080
    },
    {
      "target": 34963,
      "buffer": 0,
      "byteLength": 375120,
      "byteOffset": 1416864
    }
  ],
  "buffers": [
    {
      "byteLength": 1791984,
      "uri": "data:application/octet-stream;base64,"
    }
  ]
}
