<svg width="279" height="188" viewBox="0 0 279 188" fill="none" xmlns="http://www.w3.org/2000/svg">
<path d="M279 86.3547C279 38.728 239.089 0 190.031 0H123.429C90.9742 0 66.2257 17.484 52.943 40.1067C28.1945 47.188 15.4756 61.0373 8.95959 72.6933C-5.32561 98.1987 0.125321 128.216 7.26792 142.128C20.3627 168.323 46.8655 184.052 81.8893 186.433C97.4902 187.499 110.585 188 127.126 188C140.033 188 155.07 187.687 174.931 187.06C202.75 186.245 227.122 173.148 243.224 152.844C263.963 138.243 278.812 115.307 278.812 86.292V86.4173L279 86.3547ZM238.713 147.956C224.694 157.593 208.274 163.147 191.284 163.999C148.303 165.315 124.62 165.941 97.5529 164.688C64.6593 162.62 43.9207 152.781 32.3297 133.668C25.3124 122.2 22.9942 102.084 32.0791 85.9787C33.896 82.7827 36.3396 79.524 39.5349 76.328C37.9686 81.592 36.9035 86.856 36.5275 92.1827C34.5852 117.375 46.4896 146.452 85.7112 152.593C105.698 155.601 161.398 154.348 192.913 153.283C217.849 151.841 243.726 132.039 245.104 97.1333C245.793 80.276 240.029 64.672 229.002 53.204C217.223 40.9213 200.181 34.1533 181.009 34.1533C177.688 34.1533 99.7458 34.1533 77.1902 36.096C88.5933 28.576 102.44 23.9387 118.291 23.9387H179.755C203.251 23.312 223.864 30.832 237.836 45.1827C251.307 59.032 257.823 77.9573 256.632 100.016C255.703 117.481 249.474 134.247 238.776 148.081V147.956H238.713ZM77.2529 42.7387C99.0566 40.796 180.069 40.796 180.883 40.796C198.176 40.796 213.464 46.812 223.989 57.716C233.764 67.868 238.839 81.7173 238.212 96.6947C237.022 127.589 214.278 145.073 192.537 146.327C167.475 147.141 106.888 148.771 86.651 145.7C52.0032 140.311 41.4772 114.68 43.2315 92.5587C43.2315 91.932 43.4195 91.3053 43.4822 90.6787C47.8053 111.171 63.2183 130.409 96.7384 135.423C110.146 137.428 170.921 137.428 191.096 135.423C213.589 132.791 228.187 115.62 227.373 92.6213C225.932 71.7533 208.138 53.6427 187.775 52.264C168.854 50.3213 96.989 52.2013 94.0443 52.264C77.6915 52.1387 64.9726 54.5827 55.0106 58.468C58.3747 53.1394 62.3952 48.2549 66.9776 43.9293C70.2982 43.428 73.7442 42.9893 77.3155 42.7387H77.2529ZM49.6223 68.5573C59.5217 62.9173 73.6816 58.9067 93.9816 59.0947C94.7335 59.0947 168.415 57.152 187.086 59.0947C204.003 60.2853 219.29 75.8893 220.481 93.06C221.107 112.487 209.203 126.524 190.219 128.78C170.984 130.723 110.46 130.723 97.6782 128.78C59.2084 123.015 47.3041 96.5693 48.9958 73.8213C49.1211 72.0667 49.309 70.312 49.6223 68.62V68.5573ZM174.868 180.355C129.82 181.733 109.958 181.608 82.4532 179.728C63.5942 178.412 29.5729 171.456 13.4081 139.12C7.14261 126.963 2.00495 99.076 14.8491 76.14C21.9917 63.356 33.2695 54.2067 48.6825 48.6293C46.4269 53.768 44.6726 59.032 43.6075 64.3587C36.4028 68.9473 30.4074 75.2019 26.1269 82.5947C15.225 101.896 18.671 124.393 26.4402 137.177C39.2843 158.359 61.7146 169.263 97.1143 171.456C107.64 171.957 117.602 172.145 128.379 172.145C145.609 172.145 164.844 171.581 191.472 170.767C201.684 170.328 211.897 168.072 221.671 164.437C208.057 174.344 191.761 179.893 174.931 180.355H174.868ZM263.274 100.329C264.527 76.328 257.384 55.5853 242.535 40.3573C227.247 24.628 204.88 16.356 179.505 17.0453H118.104C96.1119 17.0453 77.6288 25.192 63.7822 37.6627C63.281 37.7253 62.905 37.8507 62.4038 37.9133C75.1853 19.9907 96.4251 6.768 123.367 6.768H189.968C235.267 6.768 272.108 42.488 272.108 86.3547C272.108 104.465 265.717 120.007 255.63 132.289C259.89 122.451 262.585 111.672 263.211 100.204H263.274V100.329Z" fill="url(#paint0_linear_8_249)"/>
<defs>
<linearGradient id="paint0_linear_8_249" x1="139.509" y1="0" x2="139.509" y2="188" gradientUnits="userSpaceOnUse">
<stop stop-color="#FE8040"/>
<stop offset="0.5" stop-color="#FB4517"/>
<stop offset="1" stop-color="#D12630"/>
</linearGradient>
</defs>
</svg>
