{
  "accessors": [
    {
      "bufferView": 2,
      "componentType": 5126,
      "count": 3175,
      "max": [
        75.28766632080078,
        40.4155158996582,
        0.0
      ],
      "min": [
        -75.01805877685547,
        -40.29594802856445,
        -0.7484542727470398
      ],
      "type": "VEC3"
    },
    {
      "bufferView": 2,
      "byteOffset": 38100,
      "componentType": 5126,
      "count": 3175,
      "max": [
        0.5525882840156555,
        0.726136326789856,
        1.0
      ],
      "min": [
        -0.6414214968681335,
        -0.7696230411529541,
        0.6384986639022827
      ],
      "type": "VEC3"
    },
    {
      "bufferView": 1,
      "componentType": 5126,
      "count": 3175,
      "max": [
        1.0000001192092896,
        1.0000001192092896
      ],
      "min": [
        0.0,
        0.0
      ],
      "type": "VEC2"
    },
    {
      "bufferView": 0,
      "componentType": 5125,
      "count": 16872,
      "type": "SCALAR"
    },
    {
      "bufferView": 2,
      "byteOffset": 76200,
      "componentType": 5126,
      "count": 287,
      "max": [
        60.452144622802734,
        28.119550704956055,
        -0.3737710416316986
      ],
      "min": [
        -60.39433670043945,
        -28.119550704956055,
        -0.4485252797603607
      ],
      "type": "VEC3"
    },
    {
      "bufferView": 2,
      "byteOffset": 79644,
      "componentType": 5126,
      "count": 287,
      "max": [
        0.5199831128120422,
        0.6647909879684448,
        1.0
      ],
      "min": [
        -0.520433247089386,
        -0.6647921800613403,
        0.747000515460968
      ],
      "type": "VEC3"
    },
    {
      "bufferView": 1,
      "byteOffset": 25400,
      "componentType": 5126,
      "count": 287,
      "max": [
        0.46575796604156494,
        0.9999317526817322
      ],
      "min": [
        6.822133582318202e-05,
        6.821454007877037e-05
      ],
      "type": "VEC2"
    },
    {
      "bufferView": 0,
      "byteOffset": 67488,
      "componentType": 5125,
      "count": 1305,
      "type": "SCALAR"
    },
    {
      "bufferView": 2,
      "byteOffset": 83088,
      "componentType": 5126,
      "count": 42,
      "max": [
        39.10836410522461,
        24.789403915405273,
        -0.44852516055107117
      ],
      "min": [
        -39.1463737487793,
        -24.532958984375,
        -0.4485252797603607
      ],
      "type": "VEC3"
    },
    {
      "bufferView": 2,
      "byteOffset": 83592,
      "componentType": 5126,
      "count": 42,
      "max": [
        0.0032631722278892994,
        0.0056912885047495365,
        1.0
      ],
      "min": [
        -0.0018113143742084503,
        -0.006487170234322548,
        0.9999788403511047
      ],
      "type": "VEC3"
    },
    {
      "bufferView": 1,
      "byteOffset": 27696,
      "componentType": 5126,
      "count": 42,
      "max": [
        0.6302590370178223,
        0.9999206066131592
      ],
      "min": [
        7.936610927572474e-05,
        7.938680937513709e-05
      ],
      "type": "VEC2"
    },
    {
      "bufferView": 0,
      "byteOffset": 72708,
      "componentType": 5125,
      "count": 156,
      "type": "SCALAR"
    },
    {
      "bufferView": 2,
      "byteOffset": 84096,
      "componentType": 5126,
      "count": 1528,
      "max": [
        38.0958366394043,
        3.4670701026916504,
        2.288280963897705
      ],
      "min": [
        -38.0958366394043,
        -3.4670701026916504,
        -0.4679657816886902
      ],
      "type": "VEC3"
    },
    {
      "bufferView": 2,
      "byteOffset": 102432,
      "componentType": 5126,
      "count": 1528,
      "max": [
        0.999998927116394,
        1.0,
        0.9999996423721313
      ],
      "min": [
        -0.9999988675117493,
        -1.0,
        -0.999994158744812
      ],
      "type": "VEC3"
    },
    {
      "bufferView": 1,
      "byteOffset": 28032,
      "componentType": 5126,
      "count": 1528,
      "max": [
        0.0,
        0.0
      ],
      "min": [
        0.0,
        0.0
      ],
      "type": "VEC2"
    },
    {
      "bufferView": 0,
      "byteOffset": 73332,
      "componentType": 5125,
      "count": 9240,
      "type": "SCALAR"
    },
    {
      "bufferView": 2,
      "byteOffset": 120768,
      "componentType": 5126,
      "count": 668,
      "max": [
        38.05929183959961,
        3.502084493637085,
        2.2994675636291504
      ],
      "min": [
        -38.05929183959961,
        -3.472548723220825,
        -0.3804994821548462
      ],
      "type": "VEC3"
    },
    {
      "bufferView": 2,
      "byteOffset": 128784,
      "componentType": 5126,
      "count": 668,
      "max": [
        0.959564208984375,
        0.9999818205833435,
        0.9999991655349731
      ],
      "min": [
        -0.959564208984375,
        -0.9999915957450867,
        -0.07678423821926117
      ],
      "type": "VEC3"
    },
    {
      "bufferView": 1,
      "byteOffset": 40256,
      "componentType": 5126,
      "count": 668,
      "max": [
        0.7140250205993652,
        0.9998471736907959
      ],
      "min": [
        0.00015271658776327968,
        0.00015270563017111272
      ],
      "type": "VEC2"
    },
    {
      "bufferView": 0,
      "byteOffset": 110292,
      "componentType": 5125,
      "count": 3168,
      "type": "SCALAR"
    },
    {
      "bufferView": 2,
      "byteOffset": 136800,
      "componentType": 5126,
      "count": 1340,
      "max": [
        48.13502883911133,
        42.101600646972656,
        24.227596282958984
      ],
      "min": [
        -48.13502883911133,
        -42.101600646972656,
        -0.9695996642112732
      ],
      "type": "VEC3"
    },
    {
      "bufferView": 2,
      "byteOffset": 152880,
      "componentType": 5126,
      "count": 1340,
      "max": [
        0.9977563619613647,
        0.9978566765785217,
        0.9498329758644104
      ],
      "min": [
        -0.9977563619613647,
        -0.9978566765785217,
        -0.8770702481269836
      ],
      "type": "VEC3"
    },
    {
      "bufferView": 0,
      "byteOffset": 122964,
      "componentType": 5125,
      "count": 7608,
      "type": "SCALAR"
    },
    {
      "bufferView": 2,
      "byteOffset": 168960,
      "componentType": 5126,
      "count": 256,
      "max": [
        47.874900817871094,
        41.841468811035156,
        23.43344497680664
      ],
      "min": [
        -47.874900817871094,
        -41.841468811035156,
        17.572608947753906
      ],
      "type": "VEC3"
    },
    {
      "bufferView": 2,
      "byteOffset": 172032,
      "componentType": 5126,
      "count": 256,
      "max": [
        0.9543310403823853,
        0.9543302059173584,
        0.6250134110450745
      ],
      "min": [
        -0.9543310403823853,
        -0.9543302059173584,
        -0.8021141290664673
      ],
      "type": "VEC3"
    },
    {
      "bufferView": 0,
      "byteOffset": 153396,
      "componentType": 5125,
      "count": 384,
      "type": "SCALAR"
    },
    {
      "bufferView": 2,
      "byteOffset": 175104,
      "componentType": 5126,
      "count": 6893,
      "max": [
        71.6910171508789,
        37.383155822753906,
        0.00250325258821249
      ],
      "min": [
        -71.6910171508789,
        -37.383155822753906,
        -0.01805548369884491
      ],
      "type": "VEC3"
    },
    {
      "bufferView": 2,
      "byteOffset": 257820,
      "componentType": 5126,
      "count": 6893,
      "max": [
        0.13182203471660614,
        0.13181816041469574,
        1.0
      ],
      "min": [
        -0.13182206451892853,
        -0.13181816041469574,
        -1.0
      ],
      "type": "VEC3"
    },
    {
      "bufferView": 1,
      "byteOffset": 45600,
      "componentType": 5126,
      "count": 6893,
      "max": [
        1.0,
        1.0
      ],
      "min": [
        0.0,
        0.0
      ],
      "type": "VEC2"
    },
    {
      "bufferView": 0,
      "byteOffset": 154932,
      "componentType": 5125,
      "count": 29568,
      "type": "SCALAR"
    }
  ],
  "asset": {
    "extras": {
      "author": "Jackson.Charles (https://sketchfab.com/Jackson.Charles)",
      "license": "CC-BY-4.0 (http://creativecommons.org/licenses/by/4.0/)",
      "source": "https://sketchfab.com/3d-models/low-poly-running-race-track-game-ready-asset-23ec0c80500e4269976b6e434fab2f67",
      "title": "Low Poly Running Race Track | Game-Ready Asset"
    },
    "generator": "Sketchfab-16.52.0",
    "version": "2.0"
  },
  "bufferViews": [
    {
      "buffer": 0,
      "byteLength": 273204,
      "name": "floatBufferViews",
      "target": 34963
    },
    {
      "buffer": 0,
      "byteLength": 100744,
      "byteOffset": 273204,
      "byteStride": 8,
      "name": "floatBufferViews",
      "target": 34962
    },
    {
      "buffer": 0,
      "byteLength": 340536,
      "byteOffset": 373948,
      "byteStride": 12,
      "name": "floatBufferViews",
      "target": 34962
    }
  ],
  "buffers": [
    {
      "byteLength": 714484,
      "uri": "scene.bin"
    }
  ],
  "extensionsUsed": [
    "KHR_materials_emissive_strength"
  ],
  "images": [
    {
      "uri": "textures/Football_Ground_baseColor.png"
    },
    {
      "uri": "textures/material_baseColor.png"
    }
  ],
  "materials": [
    {
      "doubleSided": true,
      "name": "Track_Mat",
      "pbrMetallicRoughness": {
        "baseColorFactor": [
          0.800458,
          0.175583,
          0.0715967,
          1.0
        ],
        "metallicFactor": 0.0,
        "roughnessFactor": 0.9815392680728532
      }
    },
    {
      "doubleSided": true,
      "name": "Grass",
      "pbrMetallicRoughness": {
        "baseColorFactor": [
          0.09051500000000008,
          0.355537,
          0.060352899999999966,
          1.0
        ],
        "metallicFactor": 0.0,
        "roughnessFactor": 0.9630018681488022
      }
    },
    {
      "doubleSided": true,
      "name": "Football_Ground",
      "pbrMetallicRoughness": {
        "baseColorTexture": {
          "index": 0
        },
        "metallicFactor": 0.0
      }
    },
    {
      "doubleSided": true,
      "name": "White_Metal",
      "pbrMetallicRoughness": {
        "baseColorFactor": [
          0.794169,
          0.639247,
          0.656615,
          1.0
        ],
        "metallicFactor": 0.0,
        "roughnessFactor": 0.9301678417864296
      }
    },
    {
      "alphaMode": "BLEND",
      "doubleSided": true,
      "name": "material",
      "pbrMetallicRoughness": {
        "baseColorFactor": [
          0.6751395395437068,
          0.5454456420544898,
          0.5132068837552837,
          1.0
        ],
        "baseColorTexture": {
          "index": 1
        },
        "metallicFactor": 0.0
      }
    },
    {
      "doubleSided": true,
      "name": "Metal",
      "pbrMetallicRoughness": {
        "baseColorFactor": [
          0.104732,
          0.116013,
          0.104068,
          1.0
        ],
        "metallicFactor": 0.0,
        "roughnessFactor": 0.9828563643684456
      }
    },
    {
      "doubleSided": true,
      "emissiveFactor": [
        1.0,
        1.0,
        1.0
      ],
      "extensions": {
        "KHR_materials_emissive_strength": {
          "emissiveStrength": 4.0
        }
      },
      "name": "Lights",
      "pbrMetallicRoughness": {
        "baseColorFactor": [
          0.21863,
          0.163468,
          0.246707,
          1.0
        ],
        "metallicFactor": 0.0,
        "roughnessFactor": 0.9594812638024961
      }
    },
    {
      "doubleSided": true,
      "name": "Track_Lines",
      "pbrMetallicRoughness": {
        "baseColorFactor": [
          0.8,
          0.8,
          0.8,
          1.0
        ],
        "metallicFactor": 0.0
      }
    }
  ],
  "meshes": [
    {
      "name": "Running_Track_Track Mat_0",
      "primitives": [
        {
          "attributes": {
            "NORMAL": 1,
            "POSITION": 0,
            "TEXCOORD_0": 2
          },
          "indices": 3,
          "material": 0,
          "mode": 4
        }
      ]
    },
    {
      "name": "Running_Track_Grass_0",
      "primitives": [
        {
          "attributes": {
            "NORMAL": 5,
            "POSITION": 4,
            "TEXCOORD_0": 6
          },
          "indices": 7,
          "material": 1,
          "mode": 4
        }
      ]
    },
    {
      "name": "Running_Track_Football_Ground_0",
      "primitives": [
        {
          "attributes": {
            "NORMAL": 9,
            "POSITION": 8,
            "TEXCOORD_0": 10
          },
          "indices": 11,
          "material": 2,
          "mode": 4
        }
      ]
    },
    {
      "name": "Goal_Post_White Metal_0",
      "primitives": [
        {
          "attributes": {
            "NORMAL": 13,
            "POSITION": 12,
            "TEXCOORD_0": 14
          },
          "indices": 15,
          "material": 3,
          "mode": 4
        }
      ]
    },
    {
      "name": "Goal_Post_Net_0",
      "primitives": [
        {
          "attributes": {
            "NORMAL": 17,
            "POSITION": 16,
            "TEXCOORD_0": 18
          },
          "indices": 19,
          "material": 4,
          "mode": 4
        }
      ]
    },
    {
      "name": "Fled Lights_Metal_0",
      "primitives": [
        {
          "attributes": {
            "NORMAL": 21,
            "POSITION": 20
          },
          "indices": 22,
          "material": 5,
          "mode": 4
        }
      ]
    },
    {
      "name": "Fled Lights_Lights_0",
      "primitives": [
        {
          "attributes": {
            "NORMAL": 24,
            "POSITION": 23
          },
          "indices": 25,
          "material": 6,
          "mode": 4
        }
      ]
    },
    {
      "name": "Track Lines_Track_Lines_0",
      "primitives": [
        {
          "attributes": {
            "NORMAL": 27,
            "POSITION": 26,
            "TEXCOORD_0": 28
          },
          "indices": 29,
          "material": 7,
          "mode": 4
        }
      ]
    }
  ],
  "nodes": [
    {
      "children": [
        1
      ],
      "matrix": [
        0.27392423152923584,
        0.0,
        0.0,
        0.0,
        0.0,
        6.082339776930198e-17,
        -0.27392423152923584,
        0.0,
        0.0,
        0.27392423152923584,
        6.082339776930198e-17,
        0.0,
        0.0,
        0.0,
        0.0,
        1.0
      ],
      "name": "Sketchfab_model"
    },
    {
      "children": [
        2
      ],
      "matrix": [
        0.009999999776482582,
        0.0,
        0.0,
        0.0,
        0.0,
        0.0,
        0.009999999776482582,
        0.0,
        0.0,
        -0.009999999776482582,
        0.0,
        0.0,
        0.0,
        0.0,
        0.0,
        1.0
      ],
      "name": "Running_Track.fbx"
    },
    {
      "children": [
        3
      ],
      "name": "RootNode"
    },
    {
      "children": [
        4,
        8,
        11,
        14
      ],
      "matrix": [
        100.0,
        0.0,
        0.0,
        0.0,
        0.0,
        -1.629206793918314e-05,
        -99.99999999999868,
        0.0,
        0.0,
        99.99999999999868,
        -1.629206793918314e-05,
        0.0,
        0.0,
        0.0,
        0.0,
        1.0
      ],
      "name": "Running_Track.001"
    },
    {
      "children": [
        5,
        6,
        7
      ],
      "matrix": [
        1.0,
        0.0,
        0.0,
        0.0,
        0.0,
        1.0,
        -2.646977960169688e-23,
        0.0,
        0.0,
        2.646977960169688e-23,
        1.0,
        0.0,
        0.0,
        0.0,
        0.0,
        1.0
      ],
      "name": "Running_Track"
    },
    {
      "mesh": 0,
      "name": "Running_Track_Track Mat_0"
    },
    {
      "mesh": 1,
      "name": "Running_Track_Grass_0"
    },
    {
      "mesh": 2,
      "name": "Running_Track_Football_Ground_0"
    },
    {
      "children": [
        9,
        10
      ],
      "matrix": [
        1.0,
        0.0,
        0.0,
        0.0,
        0.0,
        1.0,
        -2.646977960169688e-23,
        0.0,
        0.0,
        2.646977960169688e-23,
        1.0,
        0.0,
        0.0,
        0.0,
        0.0,
        1.0
      ],
      "name": "Goal_Post"
    },
    {
      "mesh": 3,
      "name": "Goal_Post_White Metal_0"
    },
    {
      "mesh": 4,
      "name": "Goal_Post_Net_0"
    },
    {
      "children": [
        12,
        13
      ],
      "matrix": [
        1.0,
        0.0,
        0.0,
        0.0,
        0.0,
        1.0,
        -2.646977960169688e-23,
        0.0,
        0.0,
        2.646977960169688e-23,
        1.0,
        0.0,
        0.0,
        0.0,
        0.0,
        1.0
      ],
      "name": "Fled Lights"
    },
    {
      "mesh": 5,
      "name": "Fled Lights_Metal_0"
    },
    {
      "mesh": 6,
      "name": "Fled Lights_Lights_0"
    },
    {
      "children": [
        15
      ],
      "matrix": [
        1.0,
        0.0,
        0.0,
        0.0,
        0.0,
        1.0,
        -2.646977960169688e-23,
        0.0,
        0.0,
        2.646977960169688e-23,
        1.0,
        0.0,
        0.0,
        0.0,
        0.0,
        1.0
      ],
      "name": "Track Lines"
    },
    {
      "mesh": 7,
      "name": "Track Lines_Track_Lines_0"
    }
  ],
  "samplers": [
    {
      "magFilter": 9729,
      "minFilter": 9987,
      "wrapS": 10497,
      "wrapT": 10497
    }
  ],
  "scene": 0,
  "scenes": [
    {
      "name": "Sketchfab_Scene",
      "nodes": [
        0
      ]
    }
  ],
  "textures": [
    {
      "sampler": 0,
      "source": 0
    },
    {
      "sampler": 0,
      "source": 1
    }
  ]
}
