{
  "accessors": [
    {
      "bufferView": 2,
      "componentType": 5126,
      "count": 456,
      "max": [
        9.84923267364502,
        7.569021224975586,
        100.3138198852539
      ],
      "min": [
        -9.849266052246094,
        -27.360219955444336,
        43.887020111083984
      ],
      "type": "VEC3"
    },
    {
      "bufferView": 2,
      "byteOffset": 5472,
      "componentType": 5126,
      "count": 456,
      "max": [
        0.9914407730102539,
        0.9880513548851013,
        0.992708683013916
      ],
      "min": [
        -0.9914408922195435,
        -0.999753475189209,
        -0.9999496936798096
      ],
      "type": "VEC3"
    },
    {
      "bufferView": 1,
      "componentType": 5126,
      "count": 456,
      "max": [
        0.9855960011482239,
        0.9846190214157104
      ],
      "min": [
        0.017090000212192535,
        0.015381000004708767
      ],
      "type": "VEC2"
    },
    {
      "bufferView": 0,
      "componentType": 5125,
      "count": 1692,
      "type": "SCALAR"
    },
    {
      "bufferView": 2,
      "byteOffset": 10944,
      "componentType": 5126,
      "count": 199,
      "max": [
        11.05099105834961,
        9.9573392868042,
        86.31246948242188
      ],
      "min": [
        -11.050980567932129,
        -19.052236557006836,
        30.833505630493164
      ],
      "type": "VEC3"
    },
    {
      "bufferView": 2,
      "byteOffset": 13332,
      "componentType": 5126,
      "count": 199,
      "max": [
        0.9786574840545654,
        1.0,
        0.9999451637268066
      ],
      "min": [
        -0.9786574840545654,
        -1.0,
        -0.9965106248855591
      ],
      "type": "VEC3"
    },
    {
      "bufferView": 1,
      "byteOffset": 3648,
      "componentType": 5126,
      "count": 199,
      "max": [
        0.9899899959564209,
        0.9863280057907104
      ],
      "min": [
        0.007813000120222569,
        0.008057000115513802
      ],
      "type": "VEC2"
    },
    {
      "bufferView": 0,
      "byteOffset": 6768,
      "componentType": 5125,
      "count": 678,
      "type": "SCALAR"
    },
    {
      "bufferView": 2,
      "byteOffset": 15720,
      "componentType": 5126,
      "count": 882,
      "max": [
        10.068878173828125,
        2.753875970840454,
        89.73455810546875
      ],
      "min": [
        -10.068899154663086,
        -18.67597007751465,
        49.33842086791992
      ],
      "type": "VEC3"
    },
    {
      "bufferView": 2,
      "byteOffset": 26304,
      "componentType": 5126,
      "count": 882,
      "max": [
        0.9991952776908875,
        0.9999700784683228,
        0.9999999403953552
      ],
      "min": [
        -0.9991953372955322,
        -0.9999703168869019,
        -0.999993085861206
      ],
      "type": "VEC3"
    },
    {
      "bufferView": 1,
      "byteOffset": 5240,
      "componentType": 5126,
      "count": 882,
      "max": [
        0.9833980202674866,
        0.9833980202674866
      ],
      "min": [
        0.01879899948835373,
        0.01464799977838993
      ],
      "type": "VEC2"
    },
    {
      "bufferView": 0,
      "byteOffset": 9480,
      "componentType": 5125,
      "count": 3336,
      "type": "SCALAR"
    },
    {
      "bufferView": 2,
      "byteOffset": 36888,
      "componentType": 5126,
      "count": 344,
      "max": [
        8.247722625732422,
        -9.143172264099121,
        86.37857055664063
      ],
      "min": [
        -8.247740745544434,
        -17.11448860168457,
        72.77745819091797
      ],
      "type": "VEC3"
    },
    {
      "bufferView": 2,
      "byteOffset": 41016,
      "componentType": 5126,
      "count": 344,
      "max": [
        0.9981697201728821,
        0.9859889149665833,
        0.9978600740432739
      ],
      "min": [
        -0.9981697201728821,
        -0.9997442364692688,
        -0.995051383972168
      ],
      "type": "VEC3"
    },
    {
      "bufferView": 1,
      "byteOffset": 12296,
      "componentType": 5126,
      "count": 344,
      "max": [
        0.9816889762878418,
        0.9880369901657104
      ],
      "min": [
        0.03857399895787239,
        0.01782199926674366
      ],
      "type": "VEC2"
    },
    {
      "bufferView": 0,
      "byteOffset": 22824,
      "componentType": 5125,
      "count": 1290,
      "type": "SCALAR"
    },
    {
      "bufferView": 2,
      "byteOffset": 45144,
      "componentType": 5126,
      "count": 890,
      "max": [
        53.246726989746094,
        2.11653208732605,
        92.06875610351563
      ],
      "min": [
        -53.24673080444336,
        -19.58485984802246,
        48.23760223388672
      ],
      "type": "VEC3"
    },
    {
      "bufferView": 2,
      "byteOffset": 55824,
      "componentType": 5126,
      "count": 890,
      "max": [
        0.9983362555503845,
        0.9871334433555603,
        0.9999948740005493
      ],
      "min": [
        -0.9983362555503845,
        -0.9222680330276489,
        -0.9999021291732788
      ],
      "type": "VEC3"
    },
    {
      "bufferView": 1,
      "byteOffset": 15048,
      "componentType": 5126,
      "count": 890,
      "max": [
        0.9924319982528687,
        0.9929199814796448
      ],
      "min": [
        0.00976600032299757,
        0.006835999898612499
      ],
      "type": "VEC2"
    },
    {
      "bufferView": 0,
      "byteOffset": 27984,
      "componentType": 5125,
      "count": 2004,
      "type": "SCALAR"
    },
    {
      "bufferView": 2,
      "byteOffset": 66504,
      "componentType": 5126,
      "count": 700,
      "max": [
        20.687578201293945,
        8.740646362304688,
        75.8165054321289
      ],
      "min": [
        -20.68758201599121,
        -28.167837142944336,
        -7.999999979801942e-06
      ],
      "type": "VEC3"
    },
    {
      "bufferView": 2,
      "byteOffset": 74904,
      "componentType": 5126,
      "count": 700,
      "max": [
        0.9999991655349731,
        0.9862022399902344,
        0.9999336004257202
      ],
      "min": [
        -0.9999991655349731,
        -0.9993857741355896,
        -1.0
      ],
      "type": "VEC3"
    },
    {
      "bufferView": 1,
      "byteOffset": 22168,
      "componentType": 5126,
      "count": 700,
      "max": [
        0.9880369901657104,
        0.9914550185203552
      ],
      "min": [
        0.007323999889194965,
        0.008057000115513802
      ],
      "type": "VEC2"
    },
    {
      "bufferView": 0,
      "byteOffset": 36000,
      "componentType": 5125,
      "count": 2412,
      "type": "SCALAR"
    },
    {
      "bufferView": 2,
      "byteOffset": 83304,
      "componentType": 5126,
      "count": 408,
      "max": [
        14.50448989868164,
        24.473960876464844,
        44.47489547729492
      ],
      "min": [
        -14.50448989868164,
        -17.9508056640625,
        3.4718809127807617
      ],
      "type": "VEC3"
    },
    {
      "bufferView": 2,
      "byteOffset": 88200,
      "componentType": 5126,
      "count": 408,
      "max": [
        0.9999165534973145,
        0.8995648622512817,
        0.9999498724937439
      ],
      "min": [
        -0.9999727606773376,
        -0.9722330570220947,
        -0.9987220764160156
      ],
      "type": "VEC3"
    },
    {
      "bufferView": 1,
      "byteOffset": 27768,
      "componentType": 5126,
      "count": 408,
      "max": [
        0.986083984375,
        0.9897459745407104
      ],
      "min": [
        0.007079999893903732,
        0.0078119998797774315
      ],
      "type": "VEC2"
    },
    {
      "bufferView": 0,
      "byteOffset": 45648,
      "componentType": 5125,
      "count": 1290,
      "type": "SCALAR"
    }
  ],
  "asset": {
    "extras": {
      "author": "anderlenolan (https://sketchfab.com/anderlenolan)",
      "license": "CC-BY-4.0 (http://creativecommons.org/licenses/by/4.0/)",
      "source": "https://sketchfab.com/3d-models/kingdom-hearts-donald-duck-b53a0ff3c64e4b20a7a1224ec60f4459",
      "title": "Kingdom Hearts Donald Duck"
    },
    "generator": "Sketchfab-16.56.0",
    "version": "2.0"
  },
  "bufferViews": [
    {
      "buffer": 0,
      "byteLength": 50808,
      "name": "floatBufferViews",
      "target": 34963
    },
    {
      "buffer": 0,
      "byteLength": 31032,
      "byteOffset": 50808,
      "byteStride": 8,
      "name": "floatBufferViews",
      "target": 34962
    },
    {
      "buffer": 0,
      "byteLength": 93096,
      "byteOffset": 81840,
      "byteStride": 12,
      "name": "floatBufferViews",
      "target": 34962
    }
  ],
  "buffers": [
    {
      "byteLength": 174936,
      "uri": "scene.bin"
    }
  ],
  "images": [
    {
      "uri": "textures/texture000_texture000.png_baseColor.png"
    },
    {
      "uri": "textures/texture001_texture001.png_baseColor.png"
    },
    {
      "uri": "textures/texture002_texture002.png_baseColor.png"
    },
    {
      "uri": "textures/texture003_texture003.png_baseColor.png"
    },
    {
      "uri": "textures/texture004_texture004.png_baseColor.png"
    },
    {
      "uri": "textures/texture005_texture005.png_baseColor.png"
    },
    {
      "uri": "textures/texture006_texture006.png_baseColor.png"
    }
  ],
  "materials": [
    {
      "doubleSided": true,
      "name": "texture000_texture000.png",
      "pbrMetallicRoughness": {
        "baseColorTexture": {
          "index": 0
        },
        "metallicFactor": 0.0,
        "roughnessFactor": 0.8434915419926713
      }
    },
    {
      "doubleSided": true,
      "name": "texture001_texture001.png",
      "pbrMetallicRoughness": {
        "baseColorTexture": {
          "index": 1
        },
        "metallicFactor": 0.0,
        "roughnessFactor": 0.8434915419926713
      }
    },
    {
      "doubleSided": true,
      "name": "texture002_texture002.png",
      "pbrMetallicRoughness": {
        "baseColorTexture": {
          "index": 2
        },
        "metallicFactor": 0.0,
        "roughnessFactor": 0.8434915419926713
      }
    },
    {
      "doubleSided": true,
      "name": "texture003_texture003.png",
      "pbrMetallicRoughness": {
        "baseColorTexture": {
          "index": 3
        },
        "metallicFactor": 0.0,
        "roughnessFactor": 0.8434915419926713
      }
    },
    {
      "doubleSided": true,
      "name": "texture004_texture004.png",
      "pbrMetallicRoughness": {
        "baseColorTexture": {
          "index": 4
        },
        "metallicFactor": 0.0,
        "roughnessFactor": 0.8434915419926713
      }
    },
    {
      "doubleSided": true,
      "name": "texture005_texture005.png",
      "pbrMetallicRoughness": {
        "baseColorTexture": {
          "index": 5
        },
        "metallicFactor": 0.0,
        "roughnessFactor": 0.8434915419926713
      }
    },
    {
      "doubleSided": true,
      "name": "texture006_texture006.png",
      "pbrMetallicRoughness": {
        "baseColorTexture": {
          "index": 6
        },
        "metallicFactor": 0.0,
        "roughnessFactor": 0.8434915419926713
      }
    }
  ],
  "meshes": [
    {
      "name": "Object_0",
      "primitives": [
        {
          "attributes": {
            "NORMAL": 1,
            "POSITION": 0,
            "TEXCOORD_0": 2
          },
          "indices": 3,
          "material": 0,
          "mode": 4
        }
      ]
    },
    {
      "name": "Object_1",
      "primitives": [
        {
          "attributes": {
            "NORMAL": 5,
            "POSITION": 4,
            "TEXCOORD_0": 6
          },
          "indices": 7,
          "material": 1,
          "mode": 4
        }
      ]
    },
    {
      "name": "Object_2",
      "primitives": [
        {
          "attributes": {
            "NORMAL": 9,
            "POSITION": 8,
            "TEXCOORD_0": 10
          },
          "indices": 11,
          "material": 2,
          "mode": 4
        }
      ]
    },
    {
      "name": "Object_3",
      "primitives": [
        {
          "attributes": {
            "NORMAL": 13,
            "POSITION": 12,
            "TEXCOORD_0": 14
          },
          "indices": 15,
          "material": 3,
          "mode": 4
        }
      ]
    },
    {
      "name": "Object_4",
      "primitives": [
        {
          "attributes": {
            "NORMAL": 17,
            "POSITION": 16,
            "TEXCOORD_0": 18
          },
          "indices": 19,
          "material": 4,
          "mode": 4
        }
      ]
    },
    {
      "name": "Object_5",
      "primitives": [
        {
          "attributes": {
            "NORMAL": 21,
            "POSITION": 20,
            "TEXCOORD_0": 22
          },
          "indices": 23,
          "material": 5,
          "mode": 4
        }
      ]
    },
    {
      "name": "Object_6",
      "primitives": [
        {
          "attributes": {
            "NORMAL": 25,
            "POSITION": 24,
            "TEXCOORD_0": 26
          },
          "indices": 27,
          "material": 6,
          "mode": 4
        }
      ]
    }
  ],
  "nodes": [
    {
      "children": [
        1
      ],
      "matrix": [
        1.0,
        0.0,
        0.0,
        0.0,
        0.0,
        2.220446049250313e-16,
        -1.0,
        0.0,
        0.0,
        1.0,
        2.220446049250313e-16,
        0.0,
        0.0,
        0.0,
        0.0,
        1.0
      ],
      "name": "Sketchfab_model"
    },
    {
      "children": [
        2,
        3,
        4,
        5,
        6,
        7,
        8
      ],
      "name": "Donald_HP.obj.cleaner.materialmerger.gles"
    },
    {
      "mesh": 0,
      "name": "Object_2"
    },
    {
      "mesh": 1,
      "name": "Object_3"
    },
    {
      "mesh": 2,
      "name": "Object_4"
    },
    {
      "mesh": 3,
      "name": "Object_5"
    },
    {
      "mesh": 4,
      "name": "Object_6"
    },
    {
      "mesh": 5,
      "name": "Object_7"
    },
    {
      "mesh": 6,
      "name": "Object_8"
    }
  ],
  "samplers": [
    {
      "magFilter": 9729,
      "minFilter": 9987,
      "wrapS": 10497,
      "wrapT": 10497
    }
  ],
  "scene": 0,
  "scenes": [
    {
      "name": "Sketchfab_Scene",
      "nodes": [
        0
      ]
    }
  ],
  "textures": [
    {
      "sampler": 0,
      "source": 0
    },
    {
      "sampler": 0,
      "source": 1
    },
    {
      "sampler": 0,
      "source": 2
    },
    {
      "sampler": 0,
      "source": 3
    },
    {
      "sampler": 0,
      "source": 4
    },
    {
      "sampler": 0,
      "source": 5
    },
    {
      "sampler": 0,
      "source": 6
    }
  ]
}
